<mxfile host="www.draw.io" modified="2019-11-19T11:54:22.904Z" agent="Mozilla/5.0 (Macintosh; Intel Mac OS X 10_15_1) AppleWebKit/537.36 (KHTML, like Gecko) Chrome/78.0.3904.97 Safari/537.36" etag="pnTH06D--pobNiGNbKH4" version="12.2.6" type="github" pages="1">
  <diagram name="Page-1" id="13e1069c-82ec-6db2-03f1-153e76fe0fe0">
    <mxGraphModel dx="1077" dy="610" grid="0" gridSize="10" guides="1" tooltips="1" connect="1" arrows="1" fold="1" page="1" pageScale="1" pageWidth="1100" pageHeight="850" background="#ffffff" math="0" shadow="0">
      <root>
        <mxCell id="0"/>
        <mxCell id="1" parent="0"/>
        <mxCell id="7baba1c4bc27f4b0-2" value="iouui" style="shape=umlLifeline;perimeter=lifelinePerimeter;whiteSpace=wrap;html=1;container=1;collapsible=0;recursiveResize=0;outlineConnect=0;rounded=1;shadow=0;comic=0;labelBackgroundColor=none;strokeWidth=1;fontFamily=Verdana;fontSize=12;align=center;fillColor=#dae8fc;strokeColor=#6c8ebf;" parent="1" vertex="1">
          <mxGeometry x="240" y="80" width="100" height="710" as="geometry"/>
        </mxCell>
        <mxCell id="7baba1c4bc27f4b0-10" value="" style="html=1;points=[];perimeter=orthogonalPerimeter;rounded=0;shadow=0;comic=0;labelBackgroundColor=none;strokeWidth=1;fontFamily=Verdana;fontSize=12;align=center;" parent="7baba1c4bc27f4b0-2" vertex="1">
          <mxGeometry x="45" y="89" width="10" height="82" as="geometry"/>
        </mxCell>
        <mxCell id="y4EISE67XxICeCC4Xp2--17" value="" style="html=1;points=[];perimeter=orthogonalPerimeter;rounded=0;shadow=0;comic=0;labelBackgroundColor=none;strokeWidth=1;fontFamily=Verdana;fontSize=12;align=center;" parent="7baba1c4bc27f4b0-2" vertex="1">
          <mxGeometry x="50" y="353" width="10" height="40" as="geometry"/>
        </mxCell>
        <mxCell id="7baba1c4bc27f4b0-3" value="server" style="shape=umlLifeline;perimeter=lifelinePerimeter;whiteSpace=wrap;html=1;container=1;collapsible=0;recursiveResize=0;outlineConnect=0;rounded=1;shadow=0;comic=0;labelBackgroundColor=none;strokeWidth=1;fontFamily=Verdana;fontSize=12;align=center;fillColor=#dae8fc;strokeColor=#6c8ebf;" parent="1" vertex="1">
          <mxGeometry x="400" y="80" width="100" height="710" as="geometry"/>
        </mxCell>
        <mxCell id="y4EISE67XxICeCC4Xp2--34" value="" style="html=1;points=[];perimeter=orthogonalPerimeter;rounded=0;shadow=0;comic=0;labelBackgroundColor=none;strokeWidth=1;fontFamily=Verdana;fontSize=12;align=center;" parent="7baba1c4bc27f4b0-3" vertex="1">
          <mxGeometry x="50" y="482" width="10" height="40" as="geometry"/>
        </mxCell>
        <mxCell id="7baba1c4bc27f4b0-4" value="extension" style="shape=umlLifeline;perimeter=lifelinePerimeter;whiteSpace=wrap;html=1;container=1;collapsible=0;recursiveResize=0;outlineConnect=0;rounded=1;shadow=0;comic=0;labelBackgroundColor=none;strokeWidth=1;fontFamily=Verdana;fontSize=12;align=center;fillColor=#dae8fc;strokeColor=#6c8ebf;" parent="1" vertex="1">
          <mxGeometry x="550" y="80" width="100" height="710" as="geometry"/>
        </mxCell>
        <mxCell id="y4EISE67XxICeCC4Xp2--14" value="" style="html=1;points=[];perimeter=orthogonalPerimeter;rounded=0;shadow=0;comic=0;labelBackgroundColor=none;strokeWidth=1;fontFamily=Verdana;fontSize=12;align=center;" parent="7baba1c4bc27f4b0-4" vertex="1">
          <mxGeometry x="50" y="253" width="10" height="40" as="geometry"/>
        </mxCell>
        <mxCell id="7baba1c4bc27f4b0-8" value="client" style="shape=umlLifeline;perimeter=lifelinePerimeter;whiteSpace=wrap;html=1;container=1;collapsible=0;recursiveResize=0;outlineConnect=0;rounded=1;shadow=0;comic=0;labelBackgroundColor=none;strokeWidth=1;fontFamily=Verdana;fontSize=12;align=center;fillColor=#dae8fc;strokeColor=#6c8ebf;" parent="1" vertex="1">
          <mxGeometry x="100" y="80" width="100" height="720" as="geometry"/>
        </mxCell>
        <mxCell id="7baba1c4bc27f4b0-22" value="" style="html=1;points=[];perimeter=orthogonalPerimeter;rounded=0;shadow=0;comic=0;labelBackgroundColor=none;strokeWidth=1;fontFamily=Verdana;fontSize=12;align=center;" parent="1" vertex="1">
          <mxGeometry x="290" y="313" width="10" height="80" as="geometry"/>
        </mxCell>
        <mxCell id="7baba1c4bc27f4b0-11" value="判断是否可以发起展期：&lt;br&gt;iouExtendIf" style="html=1;verticalAlign=bottom;endArrow=block;labelBackgroundColor=none;fontFamily=Verdana;fontSize=12;edgeStyle=elbowEdgeStyle;elbow=vertical;" parent="1" edge="1">
          <mxGeometry relative="1" as="geometry">
            <mxPoint x="155" y="174" as="sourcePoint"/>
            <mxPoint x="280" y="174" as="targetPoint"/>
          </mxGeometry>
        </mxCell>
        <mxCell id="7baba1c4bc27f4b0-14" value="判断是否可以发起展期:&lt;br&gt;getLoanExtendIf" style="html=1;verticalAlign=bottom;endArrow=block;labelBackgroundColor=none;fontFamily=Verdana;fontSize=12;edgeStyle=elbowEdgeStyle;elbow=horizontal;entryX=-0.3;entryY=0;entryDx=0;entryDy=0;entryPerimeter=0;" parent="1" source="7baba1c4bc27f4b0-10" target="y4EISE67XxICeCC4Xp2--4" edge="1">
          <mxGeometry relative="1" as="geometry">
            <mxPoint x="370" y="191" as="sourcePoint"/>
            <mxPoint x="445" y="191" as="targetPoint"/>
            <Array as="points">
              <mxPoint x="490" y="181"/>
            </Array>
          </mxGeometry>
        </mxCell>
        <mxCell id="y4EISE67XxICeCC4Xp2--2" value="可发起" style="html=1;verticalAlign=bottom;endArrow=open;dashed=1;endSize=8;labelBackgroundColor=none;fontFamily=Verdana;fontSize=12;edgeStyle=elbowEdgeStyle;elbow=vertical;" parent="1" edge="1">
          <mxGeometry relative="1" as="geometry">
            <mxPoint x="150" y="249" as="targetPoint"/>
            <Array as="points">
              <mxPoint x="225" y="249"/>
              <mxPoint x="255" y="249"/>
            </Array>
            <mxPoint x="280" y="249" as="sourcePoint"/>
          </mxGeometry>
        </mxCell>
        <mxCell id="y4EISE67XxICeCC4Xp2--4" value="" style="html=1;points=[];perimeter=orthogonalPerimeter;rounded=0;shadow=0;comic=0;labelBackgroundColor=none;strokeWidth=1;fontFamily=Verdana;fontSize=12;align=center;" parent="1" vertex="1">
          <mxGeometry x="599" y="181" width="10" height="60" as="geometry"/>
        </mxCell>
        <mxCell id="y4EISE67XxICeCC4Xp2--7" value="债权人发起展期信息页：&lt;br&gt;extendPreAdd" style="html=1;verticalAlign=bottom;endArrow=block;labelBackgroundColor=none;fontFamily=Verdana;fontSize=12;edgeStyle=elbowEdgeStyle;elbow=vertical;" parent="1" edge="1">
          <mxGeometry relative="1" as="geometry">
            <mxPoint x="150" y="313" as="sourcePoint"/>
            <mxPoint x="289.5" y="313" as="targetPoint"/>
          </mxGeometry>
        </mxCell>
        <mxCell id="y4EISE67XxICeCC4Xp2--8" value="页面信息" style="html=1;verticalAlign=bottom;endArrow=open;dashed=1;endSize=8;labelBackgroundColor=none;fontFamily=Verdana;fontSize=12;edgeStyle=elbowEdgeStyle;elbow=vertical;exitX=0;exitY=0.925;exitDx=0;exitDy=0;exitPerimeter=0;" parent="1" source="7baba1c4bc27f4b0-22" edge="1">
          <mxGeometry x="-0.1538" relative="1" as="geometry">
            <mxPoint x="150" y="387" as="targetPoint"/>
            <Array as="points">
              <mxPoint x="225" y="387"/>
              <mxPoint x="255" y="387"/>
            </Array>
            <mxPoint x="280" y="387" as="sourcePoint"/>
            <mxPoint as="offset"/>
          </mxGeometry>
        </mxCell>
        <mxCell id="y4EISE67XxICeCC4Xp2--9" value="获取展期起始时间:getLaunchTime&lt;br&gt;&lt;span style=&quot;font-family: &amp;#34;menlo&amp;#34; ; font-size: 9pt ; background-color: rgb(247 , 250 , 255)&quot;&gt;获取协议：&lt;/span&gt;&lt;span style=&quot;background-color: rgb(255 , 255 , 255) ; font-family: &amp;#34;menlo&amp;#34; ; font-size: 9pt&quot;&gt;getContractInfo&lt;/span&gt;" style="html=1;verticalAlign=bottom;endArrow=block;labelBackgroundColor=none;fontFamily=Verdana;fontSize=12;edgeStyle=elbowEdgeStyle;elbow=vertical;" parent="1" edge="1">
          <mxGeometry x="0.0671" relative="1" as="geometry">
            <mxPoint x="300.5" y="323" as="sourcePoint"/>
            <mxPoint x="449.5" y="323" as="targetPoint"/>
            <mxPoint x="1" as="offset"/>
          </mxGeometry>
        </mxCell>
        <mxCell id="y4EISE67XxICeCC4Xp2--10" value="data" style="html=1;verticalAlign=bottom;endArrow=open;dashed=1;endSize=8;labelBackgroundColor=none;fontFamily=Verdana;fontSize=12;edgeStyle=elbowEdgeStyle;elbow=vertical;exitX=-0.4;exitY=0.983;exitDx=0;exitDy=0;exitPerimeter=0;" parent="1" source="y4EISE67XxICeCC4Xp2--11" edge="1">
          <mxGeometry x="-0.1538" relative="1" as="geometry">
            <mxPoint x="300" y="383" as="targetPoint"/>
            <Array as="points">
              <mxPoint x="375" y="383"/>
              <mxPoint x="405" y="383"/>
            </Array>
            <mxPoint x="440" y="383" as="sourcePoint"/>
            <mxPoint as="offset"/>
          </mxGeometry>
        </mxCell>
        <mxCell id="y4EISE67XxICeCC4Xp2--11" value="" style="html=1;points=[];perimeter=orthogonalPerimeter;rounded=0;shadow=0;comic=0;labelBackgroundColor=none;strokeWidth=1;fontFamily=Verdana;fontSize=12;align=center;" parent="1" vertex="1">
          <mxGeometry x="450" y="323" width="10" height="60" as="geometry"/>
        </mxCell>
        <mxCell id="y4EISE67XxICeCC4Xp2--13" value="可展期信息" style="html=1;verticalAlign=bottom;endArrow=open;dashed=1;endSize=8;labelBackgroundColor=none;fontFamily=Verdana;fontSize=12;edgeStyle=elbowEdgeStyle;elbow=vertical;" parent="1" edge="1">
          <mxGeometry x="-0.1538" relative="1" as="geometry">
            <mxPoint x="460" y="371" as="targetPoint"/>
            <Array as="points">
              <mxPoint x="535" y="371"/>
              <mxPoint x="565" y="371"/>
            </Array>
            <mxPoint x="600" y="371" as="sourcePoint"/>
            <mxPoint as="offset"/>
          </mxGeometry>
        </mxCell>
        <mxCell id="y4EISE67XxICeCC4Xp2--15" value="可展期信息" style="html=1;verticalAlign=bottom;endArrow=block;labelBackgroundColor=none;fontFamily=Verdana;fontSize=12;edgeStyle=elbowEdgeStyle;elbow=vertical;" parent="1" edge="1">
          <mxGeometry relative="1" as="geometry">
            <mxPoint x="460.5" y="333" as="sourcePoint"/>
            <mxPoint x="600" y="333" as="targetPoint"/>
          </mxGeometry>
        </mxCell>
        <mxCell id="y4EISE67XxICeCC4Xp2--16" value="451需要鉴权" style="html=1;verticalAlign=bottom;endArrow=open;dashed=1;endSize=8;labelBackgroundColor=none;fontFamily=Verdana;fontSize=12;edgeStyle=elbowEdgeStyle;elbow=vertical;exitX=0;exitY=0.925;exitDx=0;exitDy=0;exitPerimeter=0;" parent="1" edge="1">
          <mxGeometry x="-0.1538" relative="1" as="geometry">
            <mxPoint x="150" y="473" as="targetPoint"/>
            <Array as="points">
              <mxPoint x="225" y="473"/>
              <mxPoint x="255" y="473"/>
            </Array>
            <mxPoint x="290" y="473" as="sourcePoint"/>
            <mxPoint as="offset"/>
          </mxGeometry>
        </mxCell>
        <mxCell id="y4EISE67XxICeCC4Xp2--29" value="携带eventId和formId&lt;br&gt;再次请求：extendAdd" style="html=1;verticalAlign=bottom;endArrow=block;labelBackgroundColor=none;fontFamily=Verdana;fontSize=12;edgeStyle=elbowEdgeStyle;elbow=vertical;" parent="1" edge="1">
          <mxGeometry relative="1" as="geometry">
            <mxPoint x="150.5" y="553" as="sourcePoint"/>
            <mxPoint x="290" y="553" as="targetPoint"/>
          </mxGeometry>
        </mxCell>
        <mxCell id="y4EISE67XxICeCC4Xp2--30" value="发起结果，显示结果页" style="html=1;verticalAlign=bottom;endArrow=open;dashed=1;endSize=8;labelBackgroundColor=none;fontFamily=Verdana;fontSize=12;edgeStyle=elbowEdgeStyle;elbow=vertical;exitX=0;exitY=0.925;exitDx=0;exitDy=0;exitPerimeter=0;" parent="1" edge="1">
          <mxGeometry x="-0.1538" relative="1" as="geometry">
            <mxPoint x="150" y="612" as="targetPoint"/>
            <Array as="points">
              <mxPoint x="225" y="612"/>
              <mxPoint x="255" y="612"/>
            </Array>
            <mxPoint x="290" y="612" as="sourcePoint"/>
            <mxPoint as="offset"/>
          </mxGeometry>
        </mxCell>
        <mxCell id="y4EISE67XxICeCC4Xp2--31" value="" style="html=1;points=[];perimeter=orthogonalPerimeter;rounded=0;shadow=0;comic=0;labelBackgroundColor=none;strokeWidth=1;fontFamily=Verdana;fontSize=12;align=center;" parent="1" vertex="1">
          <mxGeometry x="290" y="552" width="10" height="60" as="geometry"/>
        </mxCell>
        <mxCell id="y4EISE67XxICeCC4Xp2--32" value="发起展期:createExtend" style="html=1;verticalAlign=bottom;endArrow=block;labelBackgroundColor=none;fontFamily=Verdana;fontSize=12;edgeStyle=elbowEdgeStyle;elbow=horizontal;" parent="1" edge="1">
          <mxGeometry relative="1" as="geometry">
            <mxPoint x="302.5" y="562" as="sourcePoint"/>
            <mxPoint x="444" y="562" as="targetPoint"/>
            <mxPoint as="offset"/>
          </mxGeometry>
        </mxCell>
        <mxCell id="y4EISE67XxICeCC4Xp2--33" value="发起结果" style="html=1;verticalAlign=bottom;endArrow=open;dashed=1;endSize=8;labelBackgroundColor=none;fontFamily=Verdana;fontSize=12;edgeStyle=elbowEdgeStyle;elbow=vertical;" parent="1" edge="1">
          <mxGeometry x="-0.1538" relative="1" as="geometry">
            <mxPoint x="300" y="602" as="targetPoint"/>
            <Array as="points">
              <mxPoint x="375" y="602"/>
              <mxPoint x="405" y="602"/>
            </Array>
            <mxPoint x="450" y="602" as="sourcePoint"/>
            <mxPoint as="offset"/>
          </mxGeometry>
        </mxCell>
        <mxCell id="y4EISE67XxICeCC4Xp2--36" value="return extendId" style="html=1;verticalAlign=bottom;endArrow=open;dashed=1;endSize=8;labelBackgroundColor=none;fontFamily=Verdana;fontSize=12;edgeStyle=elbowEdgeStyle;elbow=vertical;" parent="1" edge="1">
          <mxGeometry x="-0.1538" relative="1" as="geometry">
            <mxPoint x="460" y="592" as="targetPoint"/>
            <Array as="points">
              <mxPoint x="535" y="592"/>
              <mxPoint x="565" y="592"/>
            </Array>
            <mxPoint x="590" y="592" as="sourcePoint"/>
            <mxPoint as="offset"/>
          </mxGeometry>
        </mxCell>
        <mxCell id="y4EISE67XxICeCC4Xp2--37" value="" style="html=1;points=[];perimeter=orthogonalPerimeter;rounded=0;shadow=0;comic=0;labelBackgroundColor=none;strokeWidth=1;fontFamily=Verdana;fontSize=12;align=center;" parent="1" vertex="1">
          <mxGeometry x="590" y="568" width="10" height="24" as="geometry"/>
        </mxCell>
        <mxCell id="y4EISE67XxICeCC4Xp2--40" value="" style="curved=1;endArrow=classic;html=1;exitX=0.496;exitY=0.611;exitDx=0;exitDy=0;exitPerimeter=0;" parent="1" edge="1">
          <mxGeometry width="50" height="50" relative="1" as="geometry">
            <mxPoint x="149.60000000000002" y="487.91999999999996" as="sourcePoint"/>
            <mxPoint x="149.63043478260863" y="518" as="targetPoint"/>
            <Array as="points">
              <mxPoint x="190" y="498"/>
              <mxPoint x="150" y="518"/>
            </Array>
          </mxGeometry>
        </mxCell>
        <mxCell id="y4EISE67XxICeCC4Xp2--42" value="完成鉴权" style="text;html=1;resizable=0;points=[];autosize=1;align=left;verticalAlign=top;spacingTop=-4;" parent="1" vertex="1">
          <mxGeometry x="180" y="493" width="60" height="20" as="geometry"/>
        </mxCell>
        <mxCell id="y4EISE67XxICeCC4Xp2--6" value="发起销帐，打赏，欠条未确认，债权转让等都不能发起展期" style="rounded=0;whiteSpace=wrap;html=1;gradientColor=#ffd966;fillColor=#fff2cc;strokeColor=#d6b656;" parent="1" vertex="1">
          <mxGeometry x="519" y="196" width="180" height="30" as="geometry"/>
        </mxCell>
        <mxCell id="G3UtaHSMVwYOJJA7bn4i-3" value="发起展期：&lt;br&gt;entendAdd" style="html=1;verticalAlign=bottom;endArrow=block;labelBackgroundColor=none;fontFamily=Verdana;fontSize=12;edgeStyle=elbowEdgeStyle;elbow=vertical;" edge="1" parent="1">
          <mxGeometry relative="1" as="geometry">
            <mxPoint x="150" y="433" as="sourcePoint"/>
            <mxPoint x="289.5" y="433" as="targetPoint"/>
            <mxPoint as="offset"/>
          </mxGeometry>
        </mxCell>
        <mxCell id="G3UtaHSMVwYOJJA7bn4i-4" value="request" style="html=1;verticalAlign=bottom;endArrow=open;dashed=1;endSize=8;labelBackgroundColor=none;fontFamily=Verdana;fontSize=12;edgeStyle=elbowEdgeStyle;elbow=vertical;exitX=-0.4;exitY=0.983;exitDx=0;exitDy=0;exitPerimeter=0;" edge="1" parent="1">
          <mxGeometry x="-0.1538" relative="1" as="geometry">
            <mxPoint x="298" y="240" as="targetPoint"/>
            <Array as="points">
              <mxPoint x="556" y="239.5"/>
            </Array>
            <mxPoint x="597" y="238.5" as="sourcePoint"/>
            <mxPoint as="offset"/>
          </mxGeometry>
        </mxCell>
        <mxCell id="G3UtaHSMVwYOJJA7bn4i-8" value="insert into iou_ext_relation" style="rounded=0;whiteSpace=wrap;html=1;gradientColor=#ffd966;fillColor=#fff2cc;strokeColor=#d6b656;" vertex="1" parent="1">
          <mxGeometry x="500" y="513" width="180" height="30" as="geometry"/>
        </mxCell>
        <mxCell id="G3UtaHSMVwYOJJA7bn4i-14" value="发起展期" style="html=1;verticalAlign=bottom;endArrow=block;labelBackgroundColor=none;fontFamily=Verdana;fontSize=12;edgeStyle=elbowEdgeStyle;elbow=horizontal;entryX=-0.271;entryY=0.024;entryDx=0;entryDy=0;entryPerimeter=0;" edge="1" parent="1" target="y4EISE67XxICeCC4Xp2--37">
          <mxGeometry relative="1" as="geometry">
            <mxPoint x="460" y="567.5" as="sourcePoint"/>
            <mxPoint x="581" y="568" as="targetPoint"/>
            <mxPoint as="offset"/>
            <Array as="points">
              <mxPoint x="580.5" y="567.5"/>
            </Array>
          </mxGeometry>
        </mxCell>
      </root>
    </mxGraphModel>
  </diagram>
</mxfile>
